Simulation
nRows=19
nColumns=15
endheader
time  TH_x TH_y TH_z SC_y  SC_z  SC_x  AC_y  AC_z  AC_x  GH_y  GH_z  GH_yy  EL_x  PS_y
2.8725  0.000000  0.000000  0.000000  -32.80591856569392  -6.936756413994501  15.389012628873274  47.270212075883975  -23.45257998132192  -8.3125599191871  -15.828721820885464  30.677358695490675  13.609315577531218  14.078855446308081  120.000000
2.92995  0.000000  0.000000  0.000000  -32.94707589614413  -6.759594935929878  16.652888839978377  47.13153210831502  -24.085262099744483  -9.068651059696705  -15.061868085263685  28.951905713921  15.931236113949682  14.44458555524347  120.000000
2.9874  0.000000  0.000000  0.000000  -33.11063166517868  -6.531083262253802  17.68211748050874  47.1136646080084  -24.597392935887417  -9.534128526368253  -14.25623677381584  27.49271619357077  17.697611966807372  14.893265701740196  120.000000
3.0448500000000003  0.000000  0.000000  0.000000  -33.27360820486083  -6.284004269299951  18.47412833013059  47.18177459796929  -25.00222834213288  -9.755830690046986  -13.48286163184975  26.30194235953833  18.924413950415772  15.381086751572337  120.000000
3.1023  0.000000  0.000000  0.000000  -33.42644459002563  -6.036856317348142  19.052408263730374  47.30045974725624  -25.311357452309334  -9.796325894401447  -12.8045779058951  25.371071030413024  19.69998781627931  15.866138942542971  120.000000
3.15975  0.000000  0.000000  0.000000  -33.56738324680828  -5.801405572022039  19.462950026832548  47.43582383762485  -25.539234953374066  -9.730640295085951  -12.26271997686431  24.684047421940782  20.146142842365624  16.317921689764667  120.000000
3.2172  0.000000  0.000000  0.000000  -33.6939667792595  -5.588166870545966  19.764644075993715  47.55701191127135  -25.707339300582188  -9.636072838684326  -11.866364686684534  24.216237743541708  20.38347392711312  16.726146657735764  120.000000
3.2746500000000003  0.000000  0.000000  0.000000  -33.80134031651942  -5.406631229088621  20.005454676602  47.65019362435332  -25.838034883334018  -9.559633158137203  -11.597454890125553  23.932596740732627  20.51447403414496  17.098270557728227  120.000000
3.3321  0.000000  0.000000  0.000000  -33.887244108820994  -5.260625556371659  20.205769894481964  47.72507833793638  -25.94655371512826  -9.500872961218999  -11.42648551910773  23.7893790948269  20.62001705803439  17.45034786939584  120.000000
3.38955  0.000000  0.000000  0.000000  -33.952491897559675  -5.152057866010729  20.372870468051268  47.79485891130225  -26.044630509992878  -9.446029246891689  -11.310649427334617  23.741557783849693  20.7442844822022  17.798641202592776  120.000000
3.447  0.000000  0.000000  0.000000  -33.99969541603555  -5.082056492175332  20.51298263611257  47.864439369834784  -26.141483422630245  -9.390880200023943  -11.201148178136194  23.748969773759303  20.893759751928847  18.15382916999151  120.000000
3.5044500000000003  0.000000  0.000000  0.000000  -34.03417692575761  -5.046389072187215  20.630537773821654  47.93493456283469  -26.239290421006935  -9.334992226531737  -11.06284456460175  23.779473171546393  21.056175620503826  18.518618010180425  120.000000
3.5619  0.000000  0.000000  0.000000  -34.0616582404059  -5.035118805205325  20.72999162364248  48.00529034149465  -26.3334761700221  -9.280537108726753  -10.881247400755319  23.810018359994135  21.215758783547905  18.890295079065382  120.000000
3.61935  0.000000  0.000000  0.000000  -34.086748192272715  -5.0356705701080156  20.816202675989597  48.07337926969298  -26.416024640881332  -9.231402680545413  -10.658259969733484  23.826132709757545  21.36097995665868  19.264605842004226  120.000000
3.6768  0.000000  0.000000  0.000000  -34.112034977108145  -5.036564843009344  20.892961328957785  48.13644912846924  -26.479350263280224  -9.191226486267409  -10.404177503414743  23.82045353152907  21.48627252676838  19.63846466697836  120.000000
3.7342500000000003  0.000000  0.000000  0.000000  -34.138249573687375  -5.030168200976584  20.961945554979916  48.1909542481257  -26.519817001614655  -9.163006442429815  -10.129367958191828  23.79194361863325  21.590194876387947  20.01151336018674  120.000000
3.7917  0.000000  0.000000  0.000000  -34.164659390147655  -5.013543529638111  21.021293588818533  48.23358703417894  -26.538586317041013  -9.14629832342908  -9.842916384948946  23.74659792220276  21.67596628653547  20.385304541491305  120.000000
3.84915  0.000000  0.000000  0.000000  -34.19096523802944  -4.983217627969645  21.05934203948162  48.26922743061473  -26.538041018862305  -9.123013296863142  -9.562656851814776  23.698807020329994  21.76167844012515  20.761322440831723  120.000000
3.9066  0.000000  0.000000  0.000000  -34.21671249289808  -4.9358539346159285  21.053311957962062  48.3132149261192  -26.51566506692056  -9.057258322847485  -9.32040716543567  23.67277971478175  21.884749967863158  21.138653521955334  120.000000
